# xmcd CD database file
#
# Track frame offsets:
#	150
#	9480
#	19358
#	26756
#	31405
#	50153
#	64474
#	70655
#	77440
#	82962
#	85737
#	92859
#	95192
#	114118
#	117935
#	127416
#	161979
#	165341
#	181785
#	193767
#	200237
#	212776
#
# Disc length: 3046 seconds
#
# Revision: 3
# Processed by: cddbd v1.5.2PL0 Copyright (c) Steve Scherf et al.
# Submitted via: CDex 2.22
#
DISCID=370be416
DTITLE=Justin Hurwitz - La La Land_The Complete Musical Experience
DYEAR=2017
DGENRE=Jazz
TTITLE0=Summer Montage \\ Madeline
TTITLE1=It Pays
TTITLE2=Chicken On A Stick
TTITLE3=performed by The Messengers - Messengers Rehearsal
TTITLE4=performed by Ryan Gosling and Emma Stone - City of Stars \\ MayFinally Come True
TTITLE5=performed by John Legend - Start A Fire
TTITLE6=Chinatown
TTITLE7=Surprise
TTITLE8=Boise
TTITLE9=Missed The Play
TTITLE10=It's Over \\ Engagement Party
TTITLE11=The House In Front of The Library
TTITLE12=performed by Emma Stone - Audition (The Fools Who Dream)
TTITLE13=You Love Jazz Now
TTITLE14=Cincinnati
TTITLE15=Epilogue
TTITLE16=The End
TTITLE17=Credits
TTITLE18=feat. Emma Stone - City of Stars (Humming)
TTITLE19=Mia and Sebastian's Theme (Celesta)
TTITLE20=performed by Eddie Wakes - Silent Night
TTITLE21=performed by Emma Stone - Audition (The Fools Who Dream)  -studio version-
EXTD=Powerd by gracenote music web API YEAR: 2017
EXTT0=
EXTT1=
EXTT2=
EXTT3=
EXTT4=
EXTT5=
EXTT6=
EXTT7=
EXTT8=
EXTT9=
EXTT10=
EXTT11=
EXTT12=
EXTT13=
EXTT14=
EXTT15=
EXTT16=
EXTT17=
EXTT18=
EXTT19=
EXTT20=
EXTT21=
PLAYORDER=
